<svg width="578" height="127" viewBox="0 0 578 127" fill="none" xmlns="http://www.w3.org/2000/svg">
<g clip-path="url(#clip0_7_88)">
<path d="M139.385 100.498V26.2867H201.306V42.1859H156.52V55.4425H195.944V71.3418H156.52V100.498H139.374H139.385Z" fill="#EFF9F0"/>
<path d="M205.296 100.498V45.3679H221.362V49.4021C224.795 45.9073 229.722 44.3109 236.36 44.3109H242.039V59.1531H231.433C224.152 59.1531 221.362 63.1872 221.362 72.9382V100.508H205.296V100.498Z" fill="#EFF9F0"/>
<path d="M243.205 83.962C243.205 71.3418 250.17 66.5742 266.345 66.5742H281.768C281.125 60.6416 277.691 58.096 270.628 58.096C264.525 58.096 261.2 60.0052 260.132 64.46H244.273C245.777 50.4699 253.81 44.3109 271.163 44.3109C290.019 44.3109 297.943 51.6241 297.943 68.6991V100.508H281.877V96.1615C277.8 99.872 271.915 101.565 263.882 101.565C249.745 101.565 243.205 96.2693 243.205 83.962ZM268.056 87.7804C276.416 87.7804 280.482 84.922 281.877 78.7629V78.2343H270.737C262.704 78.2343 259.271 80.1435 259.271 83.3256C259.271 86.5076 262.486 87.7804 268.056 87.7804Z" fill="#EFF9F0"/>
<path d="M327.209 44.3109C335.133 44.3109 340.921 46.2201 344.888 50.3513V45.3679H360.954V127.011H344.888V95.5251C340.921 99.6563 335.144 101.565 327.209 101.565C310.282 101.565 303.099 92.9795 303.099 72.9382C303.099 52.8969 310.282 44.3109 327.209 44.3109ZM344.67 72.9382C344.67 63.3921 340.812 59.1531 331.918 59.1531C323.023 59.1531 319.165 63.3921 319.165 72.9382C319.165 82.4842 323.023 86.7233 331.918 86.7233C340.812 86.7233 344.67 82.6892 344.67 72.9382Z" fill="#EFF9F0"/>
<path d="M381.282 45.3679L394.678 81.6321L408.074 45.3679H425.219L403.79 100.498H385.577L364.148 45.3679H381.293H381.282Z" fill="#EFF9F0"/>
<path d="M452.773 44.3109C473.025 44.3109 481.374 53.0048 481.374 72.9382C481.374 74.6317 481.265 76.3359 481.156 78.0294H440.555C441.732 84.922 446.125 87.7804 452.98 87.7804C457.373 87.7804 461.657 86.6154 463.913 82.4842H480.524C477.636 97.4343 466.921 101.565 452.773 101.565C432.522 101.565 424.064 92.8716 424.064 72.9382C424.064 53.0048 432.533 44.3109 452.773 44.3109ZM440.773 66.3584H465.199C463.597 60.1023 459.204 58.0852 452.98 58.0852C446.757 58.0852 442.375 60.1023 440.762 66.3584H440.773Z" fill="#EFF9F0"/>
<path d="M499.958 82.4734C501.135 86.184 504.776 87.7696 511.959 87.7696C518.39 87.7696 521.387 86.4968 521.387 84.5876C521.387 82.042 516.242 80.6613 508.634 79.8199C491.282 77.9107 484.633 72.9274 484.633 61.58C484.633 49.5962 492.132 44.3001 509.059 44.3001C525.987 44.3001 534.881 50.1355 536.385 63.3813H520.526C519.24 59.6708 515.915 58.0852 508.743 58.0852C502.956 58.0852 500.176 59.1423 500.176 60.9436C500.176 63.3813 505.212 64.4384 511.643 65.2906C530.608 67.8362 536.93 72.0752 536.93 83.2069C536.93 95.3956 529.322 101.544 511.436 101.544C493.549 101.544 485.614 95.7084 484.11 82.4626H499.969L499.958 82.4734Z" fill="#EFF9F0"/>
<path d="M576.921 45.3679V60.2101H562.457V78.8707C562.457 83.6384 564.495 85.6554 569.64 85.6554H578V100.498H569.215C553.247 100.498 546.391 94.5651 546.391 80.8878V60.2101H538.892V45.3679H546.391V33.492H562.457V45.3679H576.921Z" fill="#EFF9F0"/>
<path d="M25.1129 24.8521V75.3435L0 100.196V49.6825L25.0911 24.8521H25.1129Z" fill="#EFF9F0"/>
<path d="M100.964 0V24.8521H25.1129V24.8305L50.2258 0H100.964Z" fill="#EFF9F0"/>
<path d="M65.9105 65.4955V49.9845H50.2368V65.4955H65.9105Z" fill="#EFF9F0"/>
<path d="M75.6003 49.9845V75.0955H50.2258V100.196H100.964V49.9845H75.6003Z" fill="#EFF9F0"/>
</g>
<defs>
<clipPath id="clip0_7_88">
<rect width="578" height="127" fill="white"/>
</clipPath>
</defs>
</svg>
